<svg xmlns="http://www.w3.org/2000/svg" viewBox="0 0 1600 900" role="img" aria-label="fylite 装置数据页在 16:9 首屏上的概念布局">
<title>fylite 桌面版 — 装置数据页首屏</title>
<style>
:root {
  --bg:#f4f5f7; --panel:#ffffff; --fg:#1c2128; --muted:#666f7a; --grid:#d8dce2;
  --line:#e3e6ea; --accent:#1668c8; --lcfs:#d0342c; --alt:#10897a;
  --coil:#8a53c4; --wall:#5a6270; --flux:#9aa6b8; --warn:#a75909;
  --head:#eceff3; --sel:#e7f0fb; --strip:#ffffff; --pill:#fdf1e3;
}
text { font-family:'Noto Sans SC','PingFang SC','Microsoft YaHei',system-ui,
       -apple-system,'Segoe UI',sans-serif; fill:var(--fg); }
.bg { fill:var(--bg); }
.strip { fill:var(--strip); }
.strip-ghost { fill:var(--strip); opacity:.55; }
.strip-edge { stroke:var(--line); stroke-width:1.5; }
.strip-inner { stroke:var(--line); stroke-width:1; }
.mark { fill:var(--accent); }
.markt { fill:#ffffff; }
.title { fill:var(--fg); }
.mut { fill:var(--muted); }
.lbl { fill:var(--fg); }
.acc-t { fill:var(--accent); }
.sep { stroke:var(--line); stroke-width:1; }
.pill { fill:var(--pill); stroke:var(--warn); stroke-width:1; }
.pillt { fill:var(--warn); }
.navic { fill:none; stroke:none; }
.navic-on { fill:var(--sel); stroke:var(--accent); stroke-width:1; }
.navg { fill:none; stroke:var(--muted); stroke-width:1.6;
        stroke-linecap:round; stroke-linejoin:round; }
.navg-on { fill:none; stroke:var(--accent); stroke-width:1.8;
           stroke-linecap:round; stroke-linejoin:round; }
.navgf { fill:var(--muted); stroke:none; }
.navg-onf { fill:var(--accent); stroke:none; }
.input { fill:var(--panel); stroke:var(--grid); stroke-width:1; }
.caret { fill:none; stroke:var(--muted); stroke-width:1.4; stroke-linecap:round; }
.btn { fill:none; stroke:var(--grid); stroke-width:1; }
.btn-a { fill:none; stroke:var(--accent); stroke-width:1.2; }
.btn-at { fill:var(--accent); }
.dot-busy { fill:var(--accent); }
.dot-ok { fill:var(--alt); }
.dot-idle { fill:none; stroke:var(--muted); stroke-width:1.4; }
.dot-bad { fill:var(--warn); }
.prog-bg { fill:var(--line); }
.prog { fill:var(--accent); }
.panel { fill:var(--panel); stroke:var(--line); stroke-width:1; }
.head { fill:var(--head); stroke:var(--line); stroke-width:1; }
.head-sq { fill:var(--head); stroke:none; }
.head-t { fill:var(--fg); }
.axes { fill:none; stroke:var(--grid); stroke-width:1; }
.grid { stroke:var(--grid); stroke-width:.7; }
.track { stroke:var(--grid); stroke-width:4; stroke-linecap:round; }
.track-on { stroke:var(--accent); stroke-width:4; stroke-linecap:round; }
.handle { fill:var(--panel); stroke:var(--accent); stroke-width:1.6; }
polyline { fill:none; stroke-linejoin:round; stroke-linecap:round; }
.c1 { stroke:var(--accent); stroke-width:2; }
.c2 { stroke:var(--lcfs); stroke-width:2; }
.c3 { stroke:var(--alt); stroke-width:1.8; }
.c4 { stroke:var(--coil); stroke-width:1.6; }
.c5 { stroke:var(--muted); stroke-width:1.4; stroke-dasharray:4 3; }
.zero { stroke:var(--muted); stroke-width:1; }
.lane { stroke:var(--grid); stroke-width:1; stroke-dasharray:2 3; }
.w1 { fill:var(--lcfs); opacity:.28; }
.w2 { fill:var(--alt); opacity:.30; }
.w3 { fill:var(--coil); opacity:.30; }
.s1 { stroke:var(--alt); stroke-width:1.4; }
.s1f { fill:var(--alt); }
.wall { fill:none; stroke:var(--wall); stroke-width:1.6; stroke-dasharray:5 4; }
.lcfs { fill:none; stroke:var(--lcfs); stroke-width:2.2; }
.bar-v { fill:var(--accent); opacity:.55; }
.bar-over { fill:var(--warn); opacity:.72; }
.lim { stroke:var(--wall); stroke-width:1.4; stroke-dasharray:3 2; }
.future { fill:url(#hatch); }
.future-e { fill:none; stroke:var(--muted); stroke-width:1; stroke-dasharray:3 3; }
.solved { fill:var(--accent); }
.interp { fill:var(--panel); stroke:var(--muted); stroke-width:1.4; }
.edit { stroke:var(--lcfs); stroke-width:1.6; }
.editf { fill:var(--lcfs); }
.tgt { fill:none; stroke:var(--muted); stroke-width:1.6; stroke-dasharray:5 3; }
.ff { fill:none; stroke:var(--coil); stroke-width:2; }
.fb { fill:none; stroke:var(--coil); stroke-width:2; stroke-dasharray:5 3; }
.chip-on { fill:var(--sel); stroke:var(--accent); stroke-width:1; }
.chip-off { fill:none; stroke:var(--grid); stroke-width:1; }
.gauge-bg { fill:var(--grid); opacity:.5; }
.gauge { fill:var(--alt); }
.warnbox { fill:none; stroke:var(--warn); stroke-width:1.4; stroke-dasharray:4 3; }
.warn-t { fill:var(--warn); }
.c-dot { stroke:var(--accent); stroke-width:1.8; stroke-dasharray:1.5 3.5;
         stroke-linecap:round; }
.postband { fill:var(--accent); opacity:.16; }
.okmark { fill:none; stroke:var(--alt); stroke-width:2; stroke-linecap:round;
          stroke-linejoin:round; }
.badmark { fill:none; stroke:var(--lcfs); stroke-width:2; stroke-linecap:round; }
.mono { fill:var(--fg); font-family:ui-monospace,"SFMono-Regular",Menlo,
        Consolas,"Liberation Mono",monospace; }
.ph0 { fill:var(--accent); opacity:.09; }
.ph1 { fill:var(--alt); opacity:.13; }
.ph2 { fill:var(--warn); opacity:.09; }
.null1 { fill:none; stroke:var(--flux); stroke-width:1.2; }
.null2 { fill:none; stroke:var(--accent); stroke-width:1.8; }
.foot { fill:var(--muted); }
.zone { fill:none; stroke:var(--accent); stroke-width:1.2; stroke-dasharray:5 4; }
.zone-t { fill:var(--accent); }
.brace { fill:none; stroke:var(--accent); stroke-width:1.2; }
.bar-h { fill:var(--grid); }
.bar-seen { fill:var(--accent); opacity:.20; }
.fold { stroke:var(--lcfs); stroke-width:2; stroke-dasharray:6 4; }
.fold-t { fill:var(--lcfs); }
.tick { stroke:var(--muted); stroke-width:1.4; }
.ok-t { fill:var(--alt); }
.bad-t { fill:var(--lcfs); }
.rowsel { fill:var(--sel); }
.badge { fill:var(--accent); }
.badget { fill:#ffffff; }
.bar-rest { fill:var(--grid); opacity:.45; }
.bar-seen { fill:var(--sel); }
.bar-edge { fill:none; stroke:var(--grid); stroke-width:1; }
.brk { fill:none; stroke:var(--bg); stroke-width:6; }
</style>
<defs><pattern id="hatch" width="8" height="8" patternUnits="userSpaceOnUse" patternTransform="rotate(45)"><rect width="8" height="8" fill="var(--bg)"/><line x1="0" y1="0" x2="0" y2="8" stroke="var(--grid)" stroke-width="2.4"/></pattern></defs>
<rect x="0.0" y="0.0" width="1600.0" height="900.0" class="bg"/>
<rect x="0.0" y="0.0" width="1600.0" height="84.0" class="strip"/>
<line x1="0.0" y1="84.0" x2="1600.0" y2="84.0" class="strip-edge"/>
<rect x="18.0" y="6.0" width="28.0" height="28.0" rx="6" class="mark"/>
<text x="32.0" y="25.0" class="markt" font-size="13" text-anchor="middle" font-weight="700">Fy</text>
<text x="58.0" y="25.0" class="title" font-size="15" text-anchor="start" font-weight="700">装置数据</text>
<text x="132.0" y="25.0" class="mut" font-size="11.5" text-anchor="start">MDSplus 树浏览 · 指定炮号 · 取回选定信号</text>
<rect x="700.0" y="8.0" width="200.0" height="24.0" rx="12" class="pill"/>
<text x="800.0" y="24.0" class="pillt" font-size="11.5" text-anchor="middle" font-weight="700">仅限内部测试</text>
<rect x="1554.0" y="6.0" width="28.0" height="28.0" rx="6" class="navic"/>
<circle cx="1568.0" cy="20.0" r="7" class="navg"/>
<path d="M1568.0 13.0a7 7 0 0 1 0 14z" class="navgf"/>
<line x1="1542.0" y1="11.0" x2="1542.0" y2="29.0" class="sep"/>
<rect x="1510.0" y="6.0" width="28.0" height="28.0" rx="6" class="navic-on"/>
<path d="M1517.0 13.0v14M1517.0 13.0h5M1517.0 20.0h5M1517.0 27.0h5" class="navg-on"/>
<circle cx="1528.0" cy="13.0" r="1.9" class="navg-onf"/>
<circle cx="1528.0" cy="20.0" r="1.9" class="navg-onf"/>
<circle cx="1528.0" cy="27.0" r="1.9" class="navg-onf"/>
<rect x="1478.0" y="6.0" width="28.0" height="28.0" rx="6" class="navic"/>
<path d="M1484.0 24.0Q1492.0 11.0 1500.0 22.0" class="navg"/>
<circle cx="1487.0" cy="21.0" r="1.6" class="navgf"/>
<circle cx="1492.0" cy="16.0" r="1.6" class="navgf"/>
<circle cx="1497.0" cy="20.0" r="1.6" class="navgf"/>
<rect x="1446.0" y="6.0" width="28.0" height="28.0" rx="6" class="navic"/>
<path d="M1452.0 14.0C1458.0 14.0 1460.0 26.0 1468.0 26.0" class="navg"/>
<rect x="1414.0" y="6.0" width="28.0" height="28.0" rx="6" class="navic"/>
<path d="M1420.0 25.0L1425.0 15.0L1431.0 15.0L1436.0 25.0" class="navg"/>
<line x1="0.0" y1="40.0" x2="1600.0" y2="40.0" class="strip-inner"/>
<text x="18.0" y="66.0" class="mut" font-size="12" text-anchor="start">数据源</text>
<rect x="64.0" y="48.0" width="200.0" height="26.0" rx="5" class="input"/>
<text x="73.0" y="65.4" class="lbl" font-size="12" text-anchor="start">mds.invalid:8000</text>
<path d="M246.0 59.0l4 5 4-5" class="caret"/>
<rect x="272.0" y="48.0" width="26.0" height="26.0" rx="5" class="btn"/>
<text x="285.0" y="65.3" class="mut" font-size="12" text-anchor="middle">×</text>
<rect x="310.0" y="48.0" width="62.0" height="26.0" rx="5" class="btn"/>
<text x="341.0" y="65.3" class="lbl" font-size="12" text-anchor="middle">导入</text>
<rect x="380.0" y="48.0" width="62.0" height="26.0" rx="5" class="btn"/>
<text x="411.0" y="65.3" class="lbl" font-size="12" text-anchor="middle">导出</text>
<circle cx="466.0" cy="61.0" r="4.5" class="dot-bad"/>
<text x="478.0" y="65.0" class="mut" font-size="12" text-anchor="start">网关未连 —— 这一页需要一个能开套接字的进程</text>
<rect x="0.0" y="81.0" width="1600.0" height="3.0" class="prog-bg"/>
<rect x="26.0" y="100.0" width="1548.0" height="52.0" rx="8" class="panel"/>
<rect x="26.0" y="100.0" width="3.0" height="52.0" class="mark"/>
<text x="40.0" y="120.0" class="lbl" font-size="12.5" text-anchor="start">把一台 MDSplus 服务器当成可以走进去的目录：选一棵树、给一个炮号，挑几路信号取回来画出来。</text>
<text x="40.0" y="139.0" class="mut" font-size="12.5" text-anchor="start">它只读 —— 没有入口能写、能删、能求值任意表达式。画出来的是每隔 N 个取一个样点，不是均值。</text>
<rect x="26.0" y="166.0" width="380.0" height="700.0" rx="8" class="panel"/>
<rect x="26.0" y="166.0" width="380.0" height="30.0" rx="8" class="head"/>
<rect x="26.0" y="188.0" width="380.0" height="8.0" class="head-sq"/>
<line x1="26.0" y1="196.0" x2="406.0" y2="196.0" class="sep"/>
<text x="38.0" y="185.6" class="head-t" font-size="12.5" text-anchor="start" font-weight="700">信号树</text>
<text x="38.0" y="210.0" class="mut" font-size="11.5" text-anchor="start">炮号 137985 · 树 EAST</text>
<text x="42.0" y="227.0" class="lbl" font-size="12" text-anchor="start">\EAST::TOP</text>
<text x="58.0" y="251.0" class="lbl" font-size="12" text-anchor="start">· PCS</text>
<rect x="34.0" y="261.0" width="364.0" height="20.0" rx="4" class="rowsel"/>
<text x="74.0" y="275.0" class="acc-t" font-size="12" text-anchor="start">· IP</text>
<text x="74.0" y="299.0" class="lbl" font-size="12" text-anchor="start">· VLOOP</text>
<text x="58.0" y="323.0" class="lbl" font-size="12" text-anchor="start">· MAGNETICS</text>
<text x="74.0" y="347.0" class="lbl" font-size="12" text-anchor="start">· FLUX_LOOP</text>
<text x="74.0" y="371.0" class="lbl" font-size="12" text-anchor="start">· PROBE</text>
<text x="58.0" y="395.0" class="lbl" font-size="12" text-anchor="start">· EFIT</text>
<rect x="34.0" y="405.0" width="364.0" height="20.0" rx="4" class="rowsel"/>
<text x="74.0" y="419.0" class="acc-t" font-size="12" text-anchor="start">· Q95</text>
<text x="74.0" y="443.0" class="lbl" font-size="12" text-anchor="start">· BETAP</text>
<text x="58.0" y="467.0" class="lbl" font-size="12" text-anchor="start">· THOMSON</text>
<rect x="34.0" y="477.0" width="364.0" height="20.0" rx="4" class="rowsel"/>
<text x="74.0" y="491.0" class="acc-t" font-size="12" text-anchor="start">· NE</text>
<text x="38.0" y="524.0" class="mut" font-size="11" text-anchor="start">★三路已选。取回后每路在图注里写自己取了几点。</text>
<line x1="38.0" y1="542.0" x2="394.0" y2="542.0" class="sep"/>
<text x="38.0" y="564.0" class="lbl" font-size="12.5" text-anchor="start" font-weight="700">读数 —— 取回的三路</text>
<text x="38.0" y="588.0" class="lbl" font-size="12" text-anchor="start">PCS:IP</text>
<text x="394.0" y="588.0" class="acc-t" font-size="12" text-anchor="end">256 / 12480 点</text>
<text x="38.0" y="602.0" class="mut" font-size="10.5" text-anchor="start">步长 4.9 ms —— 跟窗口走，不跟整炮走</text>
<line x1="38.0" y1="617.0" x2="394.0" y2="617.0" class="sep"/>
<text x="38.0" y="630.0" class="lbl" font-size="12" text-anchor="start">EFIT:Q95</text>
<text x="394.0" y="630.0" class="acc-t" font-size="12" text-anchor="end">256 / 3100 点</text>
<text x="38.0" y="644.0" class="mut" font-size="10.5" text-anchor="start">步长 20 ms</text>
<line x1="38.0" y1="659.0" x2="394.0" y2="659.0" class="sep"/>
<text x="38.0" y="672.0" class="lbl" font-size="12" text-anchor="start">THOMSON:NE</text>
<text x="394.0" y="672.0" class="acc-t" font-size="12" text-anchor="end">121 / 121 点</text>
<text x="38.0" y="686.0" class="mut" font-size="10.5" text-anchor="start">全取 —— 本来就少于 256</text>
<rect x="422.0" y="166.0" width="1152.0" height="700.0" rx="8" class="panel"/>
<rect x="422.0" y="166.0" width="1152.0" height="30.0" rx="8" class="head"/>
<rect x="422.0" y="188.0" width="1152.0" height="8.0" class="head-sq"/>
<line x1="422.0" y1="196.0" x2="1574.0" y2="196.0" class="sep"/>
<text x="434.0" y="185.6" class="head-t" font-size="12.5" text-anchor="start" font-weight="700">信号时序 —— 三路已取回</text>
<rect x="434.0" y="206.0" width="1128.0" height="319.0" rx="6" class="panel"/>
<rect x="468.0" y="216.0" width="1082.0" height="287.0" class="axes"/>
<line x1="468.0" y1="287.8" x2="1550.0" y2="287.8" class="grid"/>
<line x1="738.5" y1="216.0" x2="738.5" y2="503.0" class="grid"/>
<line x1="468.0" y1="359.5" x2="1550.0" y2="359.5" class="grid"/>
<line x1="1009.0" y1="216.0" x2="1009.0" y2="503.0" class="grid"/>
<line x1="468.0" y1="431.2" x2="1550.0" y2="431.2" class="grid"/>
<line x1="1279.5" y1="216.0" x2="1279.5" y2="503.0" class="grid"/>
<polyline points="468.0,488.6 554.6,488.6 662.8,267.7 1247.0,256.2 1387.7,273.4 1550.0,485.8" class="c1"/>
<text x="446.0" y="359.5" class="mut" font-size="10" text-anchor="middle" transform="rotate(-90 446.0 359.5)">Ip</text>
<text x="1009.0" y="519.0" class="mut" font-size="10.5" text-anchor="middle">Ip [kA] · 抽稀 256/12480 点</text>
<rect x="434.0" y="537.0" width="1128.0" height="319.0" rx="6" class="panel"/>
<rect x="468.0" y="547.0" width="1082.0" height="287.0" class="axes"/>
<line x1="468.0" y1="618.8" x2="1550.0" y2="618.8" class="grid"/>
<line x1="738.5" y1="547.0" x2="738.5" y2="834.0" class="grid"/>
<line x1="468.0" y1="690.5" x2="1550.0" y2="690.5" class="grid"/>
<line x1="1009.0" y1="547.0" x2="1009.0" y2="834.0" class="grid"/>
<line x1="468.0" y1="762.2" x2="1550.0" y2="762.2" class="grid"/>
<line x1="1279.5" y1="547.0" x2="1279.5" y2="834.0" class="grid"/>
<polyline points="468.0,805.3 684.4,676.1 1009.0,656.1 1333.6,667.5 1550.0,799.6" class="c3"/>
<polyline points="468.0,575.7 738.5,719.2 1117.2,733.5 1441.8,724.9 1550.0,590.0" class="c2"/>
<text x="446.0" y="690.5" class="mut" font-size="10" text-anchor="middle" transform="rotate(-90 446.0 690.5)">n_e · q95</text>
<text x="1009.0" y="850.0" class="mut" font-size="10.5" text-anchor="middle">n_e [10¹⁹ m⁻³] · q95 —— 同一时间窗，同一口径</text>
<text x="800.0" y="888.0" class="foot" font-size="11" text-anchor="middle">概念图：数据页在共享工具条下的 16:9 首屏；工具条第 ④ 槽在这一页是 mdsip 数据源，第 ⑥ 槽为空。生成物 —— tools/make-desktop-preview.py</text>
</svg>
