<svg xmlns="http://www.w3.org/2000/svg" viewBox="0 0 1240 600" width="1240" height="600" role="img" aria-label="平衡正解与位形（给电流与位形求 ψ 与度规）：物理算法流程图">
<title>平衡正解与位形（给电流与位形求 ψ 与度规） — 物理算法流程</title>
<style>
:root { --bg:#f4f5f7; --panel:#ffffff; --fg:#1c2128; --muted:#666f7a; --grid:#d8dce2; --line:#e3e6ea;
  --accent:#1668c8; --lcfs:#d0342c; --alt:#10897a; --warn:#a75909; --sel:#e7f0fb; --head:#eceff3; --wall:#5a6270; --ok:#10897a; }
text { font-family:'Noto Sans SC','PingFang SC','Microsoft YaHei',system-ui,sans-serif; font-size:12.5px; fill:var(--fg); }
.h { font-size:16px; font-weight:600; } .t { font-size:13.5px; font-weight:600; }
.s { font-size:11px; fill:var(--muted); }
.k { font-family:ui-monospace,Menlo,Consolas,monospace; font-size:11px; fill:var(--accent); }
.tag { font-size:10.5px; fill:var(--warn); } .off-t { font-size:11.5px; fill:var(--muted); }
.mono { font-family:ui-monospace,Menlo,Consolas,monospace; font-size:11px; fill:var(--muted); }
.node { fill:var(--panel); stroke:var(--grid); stroke-width:1.2; }
.node-code { fill:var(--panel); stroke:var(--accent); stroke-width:1.4; }
.node-off { fill:var(--panel); stroke:var(--grid); stroke-width:1.2; stroke-dasharray:5 4; }
.doc { fill:var(--sel); stroke:var(--accent); stroke-width:1; }
.crit { fill:#fff7ed; stroke:var(--warn); stroke-width:1; }
.loop { fill:var(--panel); stroke:var(--accent); stroke-width:1.4; }
.edge { fill:none; stroke:var(--wall); stroke-width:1.6; marker-end:url(#a); }
.edge-model { fill:none; stroke:var(--wall); stroke-width:1.6; stroke-dasharray:6 4; marker-end:url(#a); }
.back { fill:none; stroke:var(--lcfs); stroke-width:2; marker-end:url(#ab); }
.gate { fill:none; stroke:var(--warn); stroke-width:1.4; marker-end:url(#aw); }
.panel { fill:var(--panel); stroke:var(--grid); stroke-width:1; } .head { fill:var(--head); stroke:var(--grid); stroke-width:1; }
.btn { fill:none; stroke:var(--grid); stroke-width:1; } .btn-on { fill:var(--accent); } .btn-on-t { fill:#fff; font-weight:600; }
.slider { stroke:var(--grid); stroke-width:3; stroke-linecap:round; } .knob { fill:var(--panel); stroke:var(--accent); stroke-width:1.6; }
.axes { fill:none; stroke:var(--grid); } .grid { stroke:var(--grid); stroke-width:.8; }
polyline { fill:none; stroke-linejoin:round; stroke-linecap:round; }
.c1 { stroke:var(--accent); stroke-width:2; } .c2 { stroke:var(--alt); stroke-width:2; } .c3 { stroke:var(--lcfs); stroke-width:1.6; stroke-dasharray:5 3; }
.badge-ok { fill:none; stroke:var(--ok); } .badge-run { fill:none; stroke:var(--accent); } .badge-stale { fill:none; stroke:var(--warn); }
.ok-t { fill:var(--ok); } .warn-t { fill:var(--warn); } .acc-t { fill:var(--accent); }
.warnbox { fill:#fff7ed; stroke:var(--warn); } .zone { fill:var(--alt); opacity:.10; stroke:var(--alt); stroke-dasharray:3 3; }
</style>
<defs>
  <marker id="a" viewBox="0 0 10 10" refX="9" refY="5" markerWidth="8" markerHeight="8" orient="auto"><path d="M0,0 L10,5 L0,10 z" fill="#5a6270"/></marker>
  <marker id="ab" viewBox="0 0 10 10" refX="9" refY="5" markerWidth="8" markerHeight="8" orient="auto"><path d="M0,0 L10,5 L0,10 z" fill="#d0342c"/></marker>
  <marker id="aw" viewBox="0 0 10 10" refX="9" refY="5" markerWidth="8" markerHeight="8" orient="auto"><path d="M0,0 L10,5 L0,10 z" fill="#a75909"/></marker>
</defs>
<rect width="1240" height="600" fill="#f4f5f7"/>
<text x="24" y="34" class="h">平衡正解与位形（给电流与位形求 ψ 与度规） · 物理算法流程</text>
<text x="24" y="54" class="s">实线边 = 数据 · 虚线边 = 模型 · 红边 = 回边 · 橙边 = 对照 / 判定 · 虚框 = 今天无 code 的步 · 橙底行 = 该步的判据</text>
<rect x="24" y="110" width="170" height="52" rx="6" class="doc"/>
<text x="36" y="130" class="">装置文档</text>
<text x="36" y="148" class="k">pf_active · wall · tf</text>
<rect x="24" y="190" width="170" height="70" rx="6" class="doc"/>
<text x="36" y="210" class="">剖面假设</text>
<text x="36" y="228" class="k">p′(ψ) · FF′(ψ) 或 β_p · l_i</text>
<text x="36" y="246" class="s">抛物 / 给定剖面</text>
<rect x="24" y="280" width="170" height="70" rx="6" class="doc"/>
<text x="36" y="300" class="">目标位形或线圈电流</text>
<text x="36" y="318" class="s">Miller 参数 / 轮廓点</text>
<text x="36" y="336" class="s">或 pf_active 电流</text>
<rect x="250" y="120" width="230" height="114" rx="6" class="node-code"/>
<text x="262" y="140" class="t">正解</text>
<text x="262" y="158" class="k">code/forward（自由边界）</text>
<text x="262" y="176" class="k">code/steady_equilibrium（固定边界）</text>
<text x="262" y="194" class="s">Picard · 边界由线圈电流定</text>
<rect x="251" y="204" width="228" height="29" class="crit"/>
<text x="262" y="223" class="tag">GS 残差 &lt; ε · 轴 / X 点定位</text>
<rect x="530" y="120" width="230" height="114" rx="6" class="node-code"/>
<text x="542" y="140" class="t">度规与磁面</text>
<text x="542" y="158" class="k">code/ladder 描迹 → 逐面度规</text>
<text x="542" y="176" class="k">code/metric · code/li3</text>
<text x="542" y="194" class="k">code/xpoints · code/outlines</text>
<rect x="531" y="204" width="228" height="29" class="crit"/>
<text x="542" y="223" class="tag">gm 系数守恒检验（体积 · 通量）</text>
<rect x="810" y="120" width="176" height="88" rx="6" class="crit"/>
<text x="822" y="140" class="t">交出去的工件</text>
<text x="822" y="158" class="k">equilibrium 文档（P-21）</text>
<text x="822" y="176" class="s">→ M2 定态输运的度规</text>
<text x="822" y="194" class="s">→ D2 的起点 · A1 的阶段 0 对照</text>
<rect x="530" y="300" width="230" height="114" rx="6" class="node-code"/>
<text x="542" y="320" class="t">约定与往返</text>
<text x="542" y="338" class="k">code/cocos（COCOS 判定）</text>
<text x="542" y="356" class="s">g-file 往返（登记册 V-15）</text>
<text x="542" y="374" class="k">code/shape（形状标量）</text>
<rect x="531" y="384" width="228" height="29" class="crit"/>
<text x="542" y="403" class="tag">往返逐位 · COCOS 自报</text>
<path d="M194,136.0 C222.0,136.0 222.0,177.0 250,177.0" class="edge"/>
<path d="M194,225.0 C222.0,225.0 222.0,177.0 250,177.0" class="edge"/>
<path d="M194,315.0 C222.0,315.0 222.0,177.0 250,177.0" class="edge"/>
<path d="M480,177.0 L530,177.0" class="edge"/>
<path d="M760,177.0 C785.0,177.0 785.0,164.0 810,164.0" class="edge"/>
<path d="M365,250 C365,330 450,330 530,330" class="edge"/>
<path d="M760,330 C900,330 950,220 1060,200" class="gate"/>
<text x="790" y="360" class="tag">对照：CHEASE 固定边界（B-10）</text>
<rect x="24" y="528" width="1192" height="52" rx="6" class="node"/>
<text x="36" y="548" class="s">FYL-DESIGN-10 P-20：边界与度规是一条栏，不是一个下拉菜单——今天建模页没有这条栏（-10 G-11 未落），能力散在 forward / steady_equilibrium / ladder / metric 五个 code 里。</text>
<text x="36" y="566" class="s">自由边界正解的边界由线圈电流决定；D2（位形与线圈电流）是它的反问题。两章共用同一个正解器（FYL-DESIGN-09 D-6）。</text>
</svg>
