<svg xmlns="http://www.w3.org/2000/svg" viewBox="0 0 900 324" role="img" aria-label="mhd-vertical-freegsnke-east137985: 每条判据离它的带还有多远">
<title>mhd-vertical-freegsnke-east137985 - 判据余量</title>
<desc>横轴为余量倍数（对数）。1 倍处是判据本身：右侧成立，左侧越界。恒等档没有余量可言，画成标记。</desc>
<text x="8" y="22" font-size="14" font-weight="600" fill="#9a9a9a">判据余量 —— 离带还有多远（对数轴，1 倍即判据本身）</text>
<line x1="380.0" y1="40" x2="380.0" y2="284" stroke="#8a8a8a" stroke-width="0.5" stroke-dasharray="2 4" opacity="0.45"/>
<text x="380.0" y="300" font-size="11" fill="#8a8a8a" text-anchor="middle">10⁻²x</text>
<line x1="476.0" y1="40" x2="476.0" y2="284" stroke="#8a8a8a" stroke-width="0.5" stroke-dasharray="2 4" opacity="0.45"/>
<text x="476.0" y="300" font-size="11" fill="#8a8a8a" text-anchor="middle">10⁻¹x</text>
<line x1="572.0" y1="40" x2="572.0" y2="284" stroke="#8a8a8a" stroke-width="1.4" opacity="0.9"/>
<text x="572.0" y="300" font-size="11" fill="#8a8a8a" text-anchor="middle">1x</text>
<line x1="668.0" y1="40" x2="668.0" y2="284" stroke="#8a8a8a" stroke-width="0.5" stroke-dasharray="2 4" opacity="0.45"/>
<text x="668.0" y="300" font-size="11" fill="#8a8a8a" text-anchor="middle">10¹x</text>
<line x1="764.0" y1="40" x2="764.0" y2="284" stroke="#8a8a8a" stroke-width="0.5" stroke-dasharray="2 4" opacity="0.45"/>
<text x="764.0" y="300" font-size="11" fill="#8a8a8a" text-anchor="middle">10²x</text>
<line x1="860.0" y1="40" x2="860.0" y2="284" stroke="#8a8a8a" stroke-width="0.5" stroke-dasharray="2 4" opacity="0.45"/>
<text x="860.0" y="300" font-size="11" fill="#8a8a8a" text-anchor="middle">10³x</text>
<text x="572.0" y="34" font-size="11" fill="#8a8a8a" text-anchor="middle">judgement</text>
<text x="370" y="72.0" font-size="12" fill="#9a9a9a" text-anchor="end">对 FreeGSNKE：壁的 L/R 时间、$\gamma…</text>
<rect x="572.0" y="61.0" width="50.3" height="14" rx="3" fill="#2e9e4f" opacity="0.85"/>
<text x="628.3" y="72.0" font-size="11" fill="#2e9e4f" text-anchor="start">3.34x</text>
<text x="370" y="100.0" font-size="12" fill="#9a9a9a" text-anchor="end">$\gamma \propto R_w$（壁电阻线性缩放）</text>
<circle cx="572.0" cy="96.0" r="4" fill="#8a8a8a"/>
<text x="584.0" y="100.0" font-size="11" fill="#8a8a8a">无数值</text>
<text x="370" y="128.0" font-size="12" fill="#9a9a9a" text-anchor="end">壁越远 $\gamma$ 越大（结构性单调）</text>
<circle cx="572.0" cy="124.0" r="4" fill="#6f8fbf"/>
<text x="584.0" y="128.0" font-size="11" fill="#8a8a8a">恒等：成立</text>
<text x="370" y="156.0" font-size="12" fill="#9a9a9a" text-anchor="end">三档判读，且理想不稳 fail-loud</text>
<circle cx="572.0" cy="152.0" r="4" fill="#6f8fbf"/>
<text x="584.0" y="156.0" font-size="11" fill="#8a8a8a">恒等：成立</text>
<text x="370" y="184.0" font-size="12" fill="#9a9a9a" text-anchor="end">产物落 `mhd_linear` DD 形</text>
<circle cx="572.0" cy="180.0" r="4" fill="#6f8fbf"/>
<text x="584.0" y="184.0" font-size="11" fill="#8a8a8a">恒等：成立</text>
<text x="370" y="212.0" font-size="12" fill="#9a9a9a" text-anchor="end">刚度恒等式 $k = 2\pi I_p n B_z$</text>
<circle cx="572.0" cy="208.0" r="4" fill="#8a8a8a"/>
<text x="584.0" y="212.0" font-size="11" fill="#8a8a8a">读数：不判</text>
<text x="370" y="240.0" font-size="12" fill="#9a9a9a" text-anchor="end">单回路闭式解 $\gamma = (1/\tau_w)\,…</text>
<circle cx="572.0" cy="236.0" r="4" fill="#8a8a8a"/>
<text x="584.0" y="240.0" font-size="11" fill="#8a8a8a">读数：不判</text>
<text x="370" y="268.0" font-size="12" fill="#9a9a9a" text-anchor="end">耦合梯度 vs 互感的中心差分</text>
<circle cx="572.0" cy="264.0" r="4" fill="#8a8a8a"/>
<text x="584.0" y="268.0" font-size="11" fill="#8a8a8a">读数：不判</text>
<text x="8" y="316" font-size="10.5" fill="#8a8a8a">★绿而窄（&lt; 2 倍）另着色：它与余量一千倍的判据在表上长得一样，在这里不一样。　生成：tools/benchmark-figures.py</text>
</svg>
